<svg width="154" height="48" viewBox="0 0 154 48" fill="none" xmlns="http://www.w3.org/2000/svg">
<rect width="154" height="48" fill="white"/>
<path d="M27.3438 21.6406L23.6562 16.25L26.0781 12.2656H33.4844L27.3438 21.6406ZM12 33L18.6094 23.3438L22.3125 28.9688L19.8906 33H12ZM33.7812 33H26.25L12.4219 12.2656H19.875L33.7812 33ZM36.2812 21.4375H50.0781V25.1719H36.2812V21.4375ZM62.8281 33V28.8594H67.9531V16.4062H62.8281V12.2656H70.7188L74.875 16.4062V28.8594L70.7188 33H62.8281ZM54.8281 12.2656H61.7344V33H54.8281V12.2656ZM84.9531 24.4844V33H78.0469V12.2656H84.9531V20.4844H91.5625V24.4844H84.9531ZM86.0469 16.2812V12.2656H96.8438V18.2656H90.3438V16.2812H86.0469ZM86.0469 33V28.8594H89.9375V26.7812H96.8438V33H86.0469ZM113.781 30.7344H107L108.438 26.625H112.188L106.641 12.2656H113.375L121.641 33H114.656L113.781 30.7344ZM105.156 33H98.4844L105.891 13.2031L108.953 21.4375L105.156 33ZM123.609 33V12.2656H130.516V33H123.609ZM131.609 33V28.8594H135.031V26.2344H141.297V33H131.609Z" fill="#191919"/>
</svg>
